<svg xmlns="http://www.w3.org/2000/svg" viewBox="0 -0.5 36 36" shape-rendering="crispEdges">
<metadata>Made with Pixels to Svg https://codepen.io/shshaw/pen/XbxvNj</metadata>
<path stroke="#000000" d="M9 3h4M17 3h2M9 4h4M17 4h2M7 5h2M13 5h4M19 5h2M7 6h2M13 6h4M19 6h2M7 7h2M13 7h2M21 7h2M7 8h2M13 8h2M21 8h2M9 9h4M23 9h2M9 10h4M23 10h2M5 11h4M25 11h2M5 12h4M25 12h2M3 13h2M23 13h2M3 14h2M23 14h2M1 15h2M21 15h2M1 16h2M21 16h2M3 17h2M19 17h2M23 17h2M3 18h2M19 18h2M23 18h2M5 19h2M17 19h2M25 19h2M5 20h2M17 20h2M25 20h2M7 21h2M17 21h4M27 21h2M7 22h2M17 22h4M27 22h2M9 23h2M15 23h2M21 23h2M29 23h2M9 24h2M15 24h2M21 24h2M29 24h2M11 25h2M15 25h2M23 25h2M31 25h2M11 26h2M15 26h2M23 26h2M31 26h2M13 27h2M25 27h2M33 27h2M13 28h2M25 28h2M33 28h2M27 29h2M33 29h2M27 30h2M33 30h2M29 31h4M29 32h4" />
<path stroke="#606060" d="M9 5h4M9 6h4M11 7h2M11 8h2M21 17h2M21 18h2M21 19h4M21 20h4M23 21h4M23 22h4M25 23h4M25 24h4M27 25h4M27 26h4M29 27h4M29 28h4M31 29h2M31 30h2" />
<path stroke="#006ccc" d="M17 5h2M17 6h2M9 7h2M15 7h6M9 8h2M15 8h6M13 9h10M13 10h10M9 11h16M9 12h16M7 13h4M13 13h10M7 14h4M13 14h10M11 15h10M11 16h10M11 17h4M17 17h2M11 18h4M17 18h2M15 19h2M19 19h2M15 20h2M19 20h2M15 21h2M21 21h2M15 22h2M21 22h2M23 23h2M23 24h2M25 25h2M25 26h2M27 27h2M27 28h2M29 29h2M29 30h2" />
<path stroke="#b4e4e4" d="M5 13h2M11 13h2M5 14h2M11 14h2M3 15h8M3 16h8M5 17h6M15 17h2M5 18h6M15 18h2M7 19h8M7 20h8M9 21h6M9 22h6M11 23h4M11 24h4M13 25h2M13 26h2" />
</svg>