<svg xmlns="http://www.w3.org/2000/svg" viewBox="0 -0.5 36 32" shape-rendering="crispEdges">
<metadata>Made with Pixels to Svg https://codepen.io/shshaw/pen/XbxvNj</metadata>
<path stroke="#000000" d="M8 0h4M8 1h4M6 2h2M12 2h2M6 3h2M12 3h2M4 4h2M8 4h4M14 4h2M4 5h2M8 5h4M14 5h2M2 6h2M6 6h2M12 6h2M16 6h2M2 7h2M6 7h2M12 7h2M16 7h2M0 8h4M6 8h2M14 8h2M18 8h2M0 9h4M6 9h2M14 9h2M18 9h2M0 10h2M4 10h2M16 10h2M20 10h2M28 10h6M0 11h2M4 11h2M16 11h2M20 11h2M28 11h6M0 12h2M6 12h14M22 12h6M34 12h2M0 13h2M6 13h14M22 13h6M34 13h2M0 14h2M32 14h2M0 15h2M32 15h2M0 16h2M6 16h18M26 16h2M34 16h2M0 17h2M6 17h18M26 17h2M34 17h2M0 18h2M4 18h2M20 18h2M24 18h2M28 18h6M0 19h2M4 19h2M20 19h2M24 19h2M28 19h6M0 20h2M4 20h2M18 20h2M22 20h2M0 21h2M4 21h2M18 21h2M22 21h2M0 22h2M4 22h2M16 22h2M20 22h2M0 23h2M4 23h2M16 23h2M20 23h2M2 24h2M6 24h2M14 24h2M18 24h2M2 25h2M6 25h2M14 25h2M18 25h2M2 26h2M6 26h2M12 26h2M16 26h2M2 27h2M6 27h2M12 27h2M16 27h2M4 28h2M8 28h4M14 28h2M4 29h2M8 29h4M14 29h2M6 30h2M12 30h2M6 31h2M12 31h2" />
<path stroke="#873d1e" d="M8 2h4M8 3h4M6 4h2M6 5h2M4 6h2M4 7h2M4 8h2M4 9h2M2 10h2M2 11h2M2 12h2M2 13h2M2 14h2M6 14h16M24 14h8M2 15h2M6 15h16M24 15h8M2 16h2M2 17h2M2 18h2M2 19h2M2 20h2M2 21h2M2 22h2M2 23h2M4 24h2M4 25h2M4 26h2M4 27h2M6 28h2M6 29h2M8 30h4M8 31h4" />
<path stroke="#dc954c" d="M12 4h2M12 5h2M14 6h2M14 7h2M16 8h2M16 9h2M18 10h2M18 11h2M4 12h2M20 12h2M28 12h6M4 13h2M20 13h2M28 13h6M4 14h2M22 14h2M34 14h2M4 15h2M22 15h2M34 15h2M4 16h2M24 16h2M28 16h6M4 17h2M24 17h2M28 17h6M22 18h2M22 19h2M20 20h2M20 21h2M18 22h2M18 23h2M16 24h2M16 25h2M14 26h2M14 27h2M12 28h2M12 29h2" />
</svg>