<svg xmlns="http://www.w3.org/2000/svg" viewBox="0 -0.5 36 36" shape-rendering="crispEdges">
<metadata>Made with Pixels to Svg https://codepen.io/shshaw/pen/XbxvNj</metadata>
<path stroke="#000000" d="M6 0h4M6 1h4M2 2h4M10 2h2M2 3h4M10 3h2M0 4h2M10 4h2M0 5h2M10 5h2M0 6h2M8 6h2M0 7h2M8 7h2M0 8h2M10 8h2M0 9h2M10 9h2M0 10h2M12 10h4M0 11h2M12 11h4M2 12h2M16 12h2M2 13h2M16 13h2M2 14h2M18 14h2M2 15h2M18 15h2M4 16h6M20 16h2M4 17h6M20 17h2M10 18h6M22 18h2M10 19h6M22 19h2M16 20h2M24 20h2M16 21h2M24 21h2M18 22h2M26 22h2M18 23h2M26 23h2M20 24h2M28 24h2M20 25h2M28 25h2M22 26h2M30 26h2M22 27h2M30 27h2M24 28h2M32 28h2M24 29h2M32 29h2M26 30h2M34 30h2M26 31h2M34 31h2M28 32h2M34 32h2M28 33h2M34 33h2M30 34h4M30 35h4" />
<path stroke="#3348dc" d="M6 2h2M6 3h2M2 4h8M2 5h8M2 6h6M2 7h6M4 8h4M4 9h4M4 10h4M4 11h4M6 12h10M6 13h10M10 14h2M14 14h4M10 15h2M14 15h4M16 16h4M16 17h4M18 18h4M18 19h4M20 20h4M20 21h4M22 22h4M22 23h4M24 24h4M24 25h4M26 26h2M26 27h2M28 28h2M28 29h2M30 30h2M30 31h2" />
<path stroke="#606060" d="M8 2h2M8 3h2M2 8h2M8 8h2M2 9h2M8 9h2M2 10h2M8 10h4M2 11h2M8 11h4M4 12h2M4 13h2M4 14h6M12 14h2M4 15h6M12 15h2M10 16h6M10 17h6M16 18h2M16 19h2M18 20h2M18 21h2M20 22h2M20 23h2M22 24h2M22 25h2M24 26h2M28 26h2M24 27h2M28 27h2M26 28h2M30 28h2M26 29h2M30 29h2M28 30h2M32 30h2M28 31h2M32 31h2M30 32h4M30 33h4" />
</svg>