<svg xmlns="http://www.w3.org/2000/svg" viewBox="0 -0.5 28 26" shape-rendering="crispEdges">
<metadata>Made with Pixels to Svg https://codepen.io/shshaw/pen/XbxvNj</metadata>
<path stroke="#000000" d="M2 0h6M2 1h6M0 2h2M8 2h2M0 3h2M8 3h2M2 4h2M10 4h2M2 5h2M10 5h2M4 6h2M12 6h2M4 7h2M12 7h2M6 8h2M14 8h2M6 9h2M14 9h2M8 10h2M16 10h2M8 11h2M16 11h2M10 12h2M18 12h2M24 12h2M10 13h2M18 13h2M24 13h2M12 14h2M20 14h4M26 14h2M12 15h2M20 15h4M26 15h2M14 16h2M22 16h2M26 16h2M14 17h2M22 17h2M26 17h2M16 18h2M24 18h2M16 19h2M24 19h2M16 20h4M26 20h2M16 21h4M26 21h2M14 22h2M20 22h2M26 22h2M14 23h2M20 23h2M26 23h2M16 24h4M22 24h4M16 25h4M22 25h4" />
<path stroke="#aeaeae" d="M2 2h4M2 3h4M4 4h4M4 5h4M6 6h4M6 7h4M8 8h4M8 9h4M10 10h4M10 11h4M12 12h4M12 13h4M14 14h4M14 15h4M16 16h4M16 17h4M18 18h4M18 19h4M20 20h2M20 21h2" />
<path stroke="#ffffff" d="M6 2h2M6 3h2M8 4h2M8 5h2M10 6h2M10 7h2M12 8h2M12 9h2M14 10h2M14 11h2M16 12h2M16 13h2M18 14h2M18 15h2M20 16h2M20 17h2M22 18h2M22 19h2" />
<path stroke="#606060" d="M24 14h2M24 15h2M24 16h2M24 17h2M22 20h4M22 21h4M16 22h4M22 22h4M16 23h4M22 23h4" />
</svg>